<mxfile host="app.diagrams.net" modified="2021-05-05T10:24:14.117Z" agent="5.0 (Macintosh; Intel Mac OS X 10_12_0) AppleWebKit/537.36 (KHTML, like Gecko) Chrome/88.0.4324.182 Safari/537.36 Edg/88.0.705.74" etag="rRiX5n_F6i82f82QxWKh" version="14.6.10" type="github">
  <diagram id="qSAo8qGTeNCZnoAbHrCU" name="Page-1">
    <mxGraphModel dx="652" dy="380" grid="1" gridSize="10" guides="1" tooltips="1" connect="1" arrows="1" fold="1" page="1" pageScale="1" pageWidth="850" pageHeight="1100" math="0" shadow="0">
      <root>
        <mxCell id="0" />
        <mxCell id="1" parent="0" />
        <mxCell id="zXIRQ22W420NdYz-Z0Ta-1" value="" style="endArrow=none;html=1;rounded=0;edgeStyle=orthogonalEdgeStyle;strokeWidth=1;" parent="1" edge="1">
          <mxGeometry width="50" height="50" relative="1" as="geometry">
            <mxPoint x="420.52" y="320" as="sourcePoint" />
            <mxPoint x="260.52" y="160" as="targetPoint" />
          </mxGeometry>
        </mxCell>
        <mxCell id="zXIRQ22W420NdYz-Z0Ta-3" value="" style="shape=flexArrow;endArrow=classic;html=1;rounded=0;edgeStyle=orthogonalEdgeStyle;endWidth=42.56157635467981;endSize=6.5310344827586215;width=24.82758620689655;" parent="1" edge="1">
          <mxGeometry width="50" height="50" relative="1" as="geometry">
            <mxPoint x="440" y="240" as="sourcePoint" />
            <mxPoint x="490" y="240" as="targetPoint" />
          </mxGeometry>
        </mxCell>
        <mxCell id="zXIRQ22W420NdYz-Z0Ta-4" value="&lt;font style=&quot;font-size: 13px&quot;&gt;ESR&lt;/font&gt;" style="edgeLabel;html=1;align=center;verticalAlign=middle;resizable=0;points=[];" parent="zXIRQ22W420NdYz-Z0Ta-3" vertex="1" connectable="0">
          <mxGeometry x="0.1143" relative="1" as="geometry">
            <mxPoint x="-8" as="offset" />
          </mxGeometry>
        </mxCell>
        <mxCell id="zXIRQ22W420NdYz-Z0Ta-7" value="" style="endArrow=none;html=1;rounded=0;edgeStyle=orthogonalEdgeStyle;strokeWidth=1;" parent="1" edge="1">
          <mxGeometry width="50" height="50" relative="1" as="geometry">
            <mxPoint x="270.52" y="160" as="sourcePoint" />
            <mxPoint x="260.52" y="160" as="targetPoint" />
          </mxGeometry>
        </mxCell>
        <mxCell id="zXIRQ22W420NdYz-Z0Ta-11" value="0" style="edgeLabel;html=1;align=center;verticalAlign=middle;resizable=0;points=[];" parent="zXIRQ22W420NdYz-Z0Ta-7" vertex="1" connectable="0">
          <mxGeometry x="-0.8571" relative="1" as="geometry">
            <mxPoint x="-19" as="offset" />
          </mxGeometry>
        </mxCell>
        <mxCell id="zXIRQ22W420NdYz-Z0Ta-8" value="" style="endArrow=none;html=1;rounded=0;edgeStyle=orthogonalEdgeStyle;strokeWidth=1;" parent="1" edge="1">
          <mxGeometry width="50" height="50" relative="1" as="geometry">
            <mxPoint x="270.52" y="200" as="sourcePoint" />
            <mxPoint x="260.52" y="200" as="targetPoint" />
          </mxGeometry>
        </mxCell>
        <mxCell id="zXIRQ22W420NdYz-Z0Ta-12" value="-20" style="edgeLabel;html=1;align=center;verticalAlign=middle;resizable=0;points=[];" parent="zXIRQ22W420NdYz-Z0Ta-8" vertex="1" connectable="0">
          <mxGeometry x="0.0571" relative="1" as="geometry">
            <mxPoint x="-15" as="offset" />
          </mxGeometry>
        </mxCell>
        <mxCell id="zXIRQ22W420NdYz-Z0Ta-9" value="" style="endArrow=none;html=1;rounded=0;edgeStyle=orthogonalEdgeStyle;strokeWidth=1;" parent="1" edge="1">
          <mxGeometry width="50" height="50" relative="1" as="geometry">
            <mxPoint x="270.52" y="240" as="sourcePoint" />
            <mxPoint x="260.52" y="240" as="targetPoint" />
          </mxGeometry>
        </mxCell>
        <mxCell id="zXIRQ22W420NdYz-Z0Ta-13" value="-40" style="edgeLabel;html=1;align=center;verticalAlign=middle;resizable=0;points=[];" parent="zXIRQ22W420NdYz-Z0Ta-9" vertex="1" connectable="0">
          <mxGeometry x="-0.6286" relative="1" as="geometry">
            <mxPoint x="-18" as="offset" />
          </mxGeometry>
        </mxCell>
        <mxCell id="zXIRQ22W420NdYz-Z0Ta-10" value="" style="endArrow=none;html=1;rounded=0;edgeStyle=orthogonalEdgeStyle;strokeWidth=1;" parent="1" edge="1">
          <mxGeometry width="50" height="50" relative="1" as="geometry">
            <mxPoint x="270.52" y="280" as="sourcePoint" />
            <mxPoint x="260.52" y="280" as="targetPoint" />
          </mxGeometry>
        </mxCell>
        <mxCell id="zXIRQ22W420NdYz-Z0Ta-14" value="-60" style="edgeLabel;html=1;align=center;verticalAlign=middle;resizable=0;points=[];" parent="zXIRQ22W420NdYz-Z0Ta-10" vertex="1" connectable="0">
          <mxGeometry x="0.1714" y="-1" relative="1" as="geometry">
            <mxPoint x="-14" as="offset" />
          </mxGeometry>
        </mxCell>
        <mxCell id="zXIRQ22W420NdYz-Z0Ta-15" value="-80" style="endArrow=none;html=1;rounded=0;edgeStyle=orthogonalEdgeStyle;strokeWidth=1;" parent="1" edge="1">
          <mxGeometry x="1" y="10" width="50" height="50" relative="1" as="geometry">
            <mxPoint x="270.52" y="320" as="sourcePoint" />
            <mxPoint x="260.52" y="320" as="targetPoint" />
            <mxPoint x="-10" y="-10" as="offset" />
          </mxGeometry>
        </mxCell>
        <mxCell id="zXIRQ22W420NdYz-Z0Ta-16" value="" style="endArrow=none;html=1;rounded=0;edgeStyle=orthogonalEdgeStyle;strokeWidth=1;" parent="1" edge="1">
          <mxGeometry width="50" height="50" relative="1" as="geometry">
            <mxPoint x="300.52" y="310" as="sourcePoint" />
            <mxPoint x="300.52" y="320" as="targetPoint" />
          </mxGeometry>
        </mxCell>
        <mxCell id="zXIRQ22W420NdYz-Z0Ta-20" value="100" style="edgeLabel;html=1;align=center;verticalAlign=middle;resizable=0;points=[];" parent="zXIRQ22W420NdYz-Z0Ta-16" vertex="1" connectable="0">
          <mxGeometry x="-0.36" relative="1" as="geometry">
            <mxPoint y="17" as="offset" />
          </mxGeometry>
        </mxCell>
        <mxCell id="zXIRQ22W420NdYz-Z0Ta-18" value="" style="endArrow=none;html=1;rounded=0;edgeStyle=orthogonalEdgeStyle;strokeWidth=1;" parent="1" edge="1">
          <mxGeometry width="50" height="50" relative="1" as="geometry">
            <mxPoint x="340.52" y="310" as="sourcePoint" />
            <mxPoint x="340.52" y="320" as="targetPoint" />
          </mxGeometry>
        </mxCell>
        <mxCell id="zXIRQ22W420NdYz-Z0Ta-21" value="1k" style="edgeLabel;html=1;align=center;verticalAlign=middle;resizable=0;points=[];" parent="zXIRQ22W420NdYz-Z0Ta-18" vertex="1" connectable="0">
          <mxGeometry x="-0.6" relative="1" as="geometry">
            <mxPoint y="18" as="offset" />
          </mxGeometry>
        </mxCell>
        <mxCell id="zXIRQ22W420NdYz-Z0Ta-19" value="" style="endArrow=none;html=1;rounded=0;edgeStyle=orthogonalEdgeStyle;strokeWidth=1;" parent="1" edge="1">
          <mxGeometry width="50" height="50" relative="1" as="geometry">
            <mxPoint x="380.52" y="310" as="sourcePoint" />
            <mxPoint x="380.52" y="320" as="targetPoint" />
          </mxGeometry>
        </mxCell>
        <mxCell id="zXIRQ22W420NdYz-Z0Ta-22" value="10k" style="edgeLabel;html=1;align=center;verticalAlign=middle;resizable=0;points=[];" parent="zXIRQ22W420NdYz-Z0Ta-19" vertex="1" connectable="0">
          <mxGeometry x="-0.28" relative="1" as="geometry">
            <mxPoint y="16" as="offset" />
          </mxGeometry>
        </mxCell>
        <mxCell id="zXIRQ22W420NdYz-Z0Ta-23" value="" style="endArrow=none;html=1;rounded=0;edgeStyle=orthogonalEdgeStyle;strokeWidth=1;" parent="1" edge="1">
          <mxGeometry width="50" height="50" relative="1" as="geometry">
            <mxPoint x="720" y="320" as="sourcePoint" />
            <mxPoint x="520" y="160" as="targetPoint" />
          </mxGeometry>
        </mxCell>
        <mxCell id="zXIRQ22W420NdYz-Z0Ta-24" value="" style="endArrow=none;html=1;rounded=0;edgeStyle=orthogonalEdgeStyle;strokeWidth=1;" parent="1" edge="1">
          <mxGeometry width="50" height="50" relative="1" as="geometry">
            <mxPoint x="530" y="160" as="sourcePoint" />
            <mxPoint x="520" y="160" as="targetPoint" />
          </mxGeometry>
        </mxCell>
        <mxCell id="zXIRQ22W420NdYz-Z0Ta-25" value="0" style="edgeLabel;html=1;align=center;verticalAlign=middle;resizable=0;points=[];" parent="zXIRQ22W420NdYz-Z0Ta-24" vertex="1" connectable="0">
          <mxGeometry x="-0.8571" relative="1" as="geometry">
            <mxPoint x="-19" as="offset" />
          </mxGeometry>
        </mxCell>
        <mxCell id="zXIRQ22W420NdYz-Z0Ta-26" value="" style="endArrow=none;html=1;rounded=0;edgeStyle=orthogonalEdgeStyle;strokeWidth=1;" parent="1" edge="1">
          <mxGeometry width="50" height="50" relative="1" as="geometry">
            <mxPoint x="530" y="200" as="sourcePoint" />
            <mxPoint x="520" y="200" as="targetPoint" />
          </mxGeometry>
        </mxCell>
        <mxCell id="zXIRQ22W420NdYz-Z0Ta-27" value="-20" style="edgeLabel;html=1;align=center;verticalAlign=middle;resizable=0;points=[];" parent="zXIRQ22W420NdYz-Z0Ta-26" vertex="1" connectable="0">
          <mxGeometry x="0.0571" relative="1" as="geometry">
            <mxPoint x="-15" as="offset" />
          </mxGeometry>
        </mxCell>
        <mxCell id="zXIRQ22W420NdYz-Z0Ta-28" value="" style="endArrow=none;html=1;rounded=0;edgeStyle=orthogonalEdgeStyle;strokeWidth=1;" parent="1" edge="1">
          <mxGeometry width="50" height="50" relative="1" as="geometry">
            <mxPoint x="530" y="240" as="sourcePoint" />
            <mxPoint x="520" y="240" as="targetPoint" />
          </mxGeometry>
        </mxCell>
        <mxCell id="zXIRQ22W420NdYz-Z0Ta-29" value="-40" style="edgeLabel;html=1;align=center;verticalAlign=middle;resizable=0;points=[];" parent="zXIRQ22W420NdYz-Z0Ta-28" vertex="1" connectable="0">
          <mxGeometry x="-0.6286" relative="1" as="geometry">
            <mxPoint x="-18" as="offset" />
          </mxGeometry>
        </mxCell>
        <mxCell id="zXIRQ22W420NdYz-Z0Ta-30" value="" style="endArrow=none;html=1;rounded=0;edgeStyle=orthogonalEdgeStyle;strokeWidth=1;" parent="1" edge="1">
          <mxGeometry width="50" height="50" relative="1" as="geometry">
            <mxPoint x="530" y="280" as="sourcePoint" />
            <mxPoint x="520" y="280" as="targetPoint" />
          </mxGeometry>
        </mxCell>
        <mxCell id="zXIRQ22W420NdYz-Z0Ta-31" value="-60" style="edgeLabel;html=1;align=center;verticalAlign=middle;resizable=0;points=[];" parent="zXIRQ22W420NdYz-Z0Ta-30" vertex="1" connectable="0">
          <mxGeometry x="0.1714" y="-1" relative="1" as="geometry">
            <mxPoint x="-14" as="offset" />
          </mxGeometry>
        </mxCell>
        <mxCell id="zXIRQ22W420NdYz-Z0Ta-32" value="-80" style="endArrow=none;html=1;rounded=0;edgeStyle=orthogonalEdgeStyle;strokeWidth=1;" parent="1" edge="1">
          <mxGeometry x="1" y="10" width="50" height="50" relative="1" as="geometry">
            <mxPoint x="530" y="320" as="sourcePoint" />
            <mxPoint x="520" y="320" as="targetPoint" />
            <mxPoint x="-10" y="-10" as="offset" />
          </mxGeometry>
        </mxCell>
        <mxCell id="zXIRQ22W420NdYz-Z0Ta-33" value="" style="endArrow=none;html=1;rounded=0;edgeStyle=orthogonalEdgeStyle;strokeWidth=1;" parent="1" edge="1">
          <mxGeometry width="50" height="50" relative="1" as="geometry">
            <mxPoint x="560" y="310" as="sourcePoint" />
            <mxPoint x="560" y="320" as="targetPoint" />
          </mxGeometry>
        </mxCell>
        <mxCell id="zXIRQ22W420NdYz-Z0Ta-34" value="100" style="edgeLabel;html=1;align=center;verticalAlign=middle;resizable=0;points=[];" parent="zXIRQ22W420NdYz-Z0Ta-33" vertex="1" connectable="0">
          <mxGeometry x="-0.36" relative="1" as="geometry">
            <mxPoint y="17" as="offset" />
          </mxGeometry>
        </mxCell>
        <mxCell id="zXIRQ22W420NdYz-Z0Ta-35" value="" style="endArrow=none;html=1;rounded=0;edgeStyle=orthogonalEdgeStyle;strokeWidth=1;" parent="1" edge="1">
          <mxGeometry width="50" height="50" relative="1" as="geometry">
            <mxPoint x="600" y="310" as="sourcePoint" />
            <mxPoint x="600" y="320" as="targetPoint" />
          </mxGeometry>
        </mxCell>
        <mxCell id="zXIRQ22W420NdYz-Z0Ta-36" value="1k" style="edgeLabel;html=1;align=center;verticalAlign=middle;resizable=0;points=[];" parent="zXIRQ22W420NdYz-Z0Ta-35" vertex="1" connectable="0">
          <mxGeometry x="-0.6" relative="1" as="geometry">
            <mxPoint y="18" as="offset" />
          </mxGeometry>
        </mxCell>
        <mxCell id="zXIRQ22W420NdYz-Z0Ta-37" value="" style="endArrow=none;html=1;rounded=0;edgeStyle=orthogonalEdgeStyle;strokeWidth=1;" parent="1" edge="1">
          <mxGeometry width="50" height="50" relative="1" as="geometry">
            <mxPoint x="640" y="310" as="sourcePoint" />
            <mxPoint x="640" y="320" as="targetPoint" />
          </mxGeometry>
        </mxCell>
        <mxCell id="zXIRQ22W420NdYz-Z0Ta-38" value="10k" style="edgeLabel;html=1;align=center;verticalAlign=middle;resizable=0;points=[];" parent="zXIRQ22W420NdYz-Z0Ta-37" vertex="1" connectable="0">
          <mxGeometry x="-0.28" relative="1" as="geometry">
            <mxPoint y="16" as="offset" />
          </mxGeometry>
        </mxCell>
        <mxCell id="zXIRQ22W420NdYz-Z0Ta-46" value="" style="endArrow=none;html=1;rounded=1;strokeWidth=2;endFill=0;" parent="1" edge="1">
          <mxGeometry relative="1" as="geometry">
            <mxPoint x="270.52" y="160" as="sourcePoint" />
            <mxPoint x="420.52" y="320" as="targetPoint" />
            <Array as="points">
              <mxPoint x="340.52" y="160" />
            </Array>
          </mxGeometry>
        </mxCell>
        <mxCell id="zXIRQ22W420NdYz-Z0Ta-54" value="" style="endArrow=classic;html=1;rounded=0;strokeWidth=1;startSize=6;" parent="1" edge="1">
          <mxGeometry relative="1" as="geometry">
            <mxPoint x="323.52" y="204" as="sourcePoint" />
            <mxPoint x="340.52" y="170" as="targetPoint" />
            <Array as="points">
              <mxPoint x="330.52" y="190" />
            </Array>
          </mxGeometry>
        </mxCell>
        <mxCell id="zXIRQ22W420NdYz-Z0Ta-62" value="" style="shape=image;verticalLabelPosition=bottom;labelBackgroundColor=#ffffff;verticalAlign=top;aspect=fixed;imageAspect=0;image=data:image/png,iVBORw0KGgoAAAANSUhEUgAAAggAAADUCAYAAAD5n9seAAAgAElEQVR4Xu2dB9Q+RXWHf5aoQUUQBbvYe0EENajYsMSGYiREI2pQNLEhVpAoRmNQbGgkYoktBhUssRALsRFjQ43GGLELon8QKcGo2HIeMmuGZXe27zv7vr97znco3+7MnWf327kzc8tFZDEBEzABEzABEzCBEoGLmIgJmIAJmIAJmIAJlAnYQPA7YQImYAImYAImcCECNhD8UpiACZiACZiACdhA8DtgAiZgAiZgAibQTMA7CM2MfIUJmIAJmIAJbBwBGwgb98g9YBMwgYUTuIakG0v6qqSTFz4Wq58xARsIGT8cq2YCJmACJQK3kfQuSVeW9B1J1zYhE5iKgA2Eqci6XRMwARMYj8AlJO0r6VWSLh6aPUXS1cfrwi2ZwAUJ2EDwG2ECJmAC+RLAMGDX4D2Sti2p+QNJV8tXdWu2dAI2EJb+BK2/CZjAOhK4jqRDJP2hpO0kXbRikDYQ1vHJZzQmGwgZPQyrYgImsHEELilpe0k3k7SbpDsEv4IrSbpYAw0fMWzc6zLvgG0gzMvbvZmACZjAfSUdIQnjYGtJW0nq8y22geB3aVICfV7KSRVy4yZgAiaw5gT2lnR0yzH+puZ4gdttILSE6Mv6EbCB0I+b7zIBEzCBvgRSBsJvJf23pO9KOk7SFkkvqenIBkLfJ+D7WhGwgdAKky8yARMwgdEIPEDS6yT9WtLPJJ0l6duSPinp2GAcFJ0R2vgGGwijsXdDHQjYQOgAy5eagAmYwMwEHi7p72v6dBTDzA9j07qzgbBpT9zjNQETWBIBGwhLelprpqsNhDV7oB6OCZjAWhGwgbBWj3NZg7GBsKznZW1NwAQ2i4ANhM163lmN1gZCVo/DypiACZjABQjYQPALsTICNhBWht4dm4AJmEAjARsIjYh8wVQEbCBMRdbtmoAJmMBwAjYQhjN0Cz0J2EDoCc63mYAJmMAMBGwgzADZXVQTsIHgN8METMAE8iVgAyHfZ7P2mtlAWPtH7AGagAksmIANhAU/vKWrbgNh6U/Q+puACawzARsI6/x0Mx+bDYTMH5DVMwET2GgCNhA2+vGvdvA2EFbL372bgAmYQIqADQS/HysjYANhZejdsQmYgAk0ErCB0IjIF0xFwAbCVGTdrgmYgAkMJ2ADYThDt9CTgA2EnuB8mwmYgAnMQMAGwgyQ3UU1ARsIfjNMwARMIF8CNhDyfTZrr5kNhLV/xB6gCZjAggnYQFjww1u66jYQlv4Erb8JmMA6E0gZCKdKuuo6D95jWy0BGwir5e/eTcAETCBFIGUg/FDSVYzPBKYiYANhKrJu1wRMwASGE0gZCD+SdOXhXbgFE6gmYAPBb4YJmIAJ5EsgZSBskXSlfFW3ZksnYANh6U/Q+puACawzgZSBcJqkHdZ58B7bagnYQFgtf/duAiZgAikCNhD8fqyMgA2ElaF3xyZgAibQSCBlIJwuafvGFnyBCfQkYAOhJzjfZgImYAIzEEgZCD+WdMUZdHAXG0rABsKGPngP2wRMYBEEUgbCGZKusIhRWMlFErCBsMjHZqVNwAQ2hEDKQPiJpO02hIOHuQICNhBWAN1dmoAJmEBLAikD4UxJl2/Zji8zgc4EbCB0RuYbTMAETGA2AikD4SxJ286miTvaOAI2EDbukXvAJmACCyJgA2FBD2vdVLWBsG5P1OMxARNYJwIpA+FsSdus02A9lrwI2EDI63lYGxMwAROICaQMhHMkXc64TGAqAjYQpiLrdk3ABExgOIGUgfDfkrYe3oVbMIFqAjYQ/GaYgAmYQL4EUgbCuZIum6/q1mzpBGwgLP0JWn8TMIF1JpAyEH4q6TLrPHiPbbUEbCCslr97NwETMIEUgZSB8D+SLm18JjAVARsIU5F1uyZgAiYwnEDKQPiZpK2Gd+EWTKCagA0EvxkmYAImkC8BGwj5Ppu118wGwto/Yg/QBExgwQRSBsLPJf3+gsdm1TMnYAMh8wdk9UzABDaaQMpA+IWkS200HQ9+UgI2ECbF68ZNwARMYBCBIyU9pqaFX0u6sqTTB/Xgm02ghoANBL8aJmACJjAvAb67V5dU/v5eNOwIXFXSncPP7RpUo2DT+yV9U9IXJf1AEgmUzpP0m+jeMySRN8FiAq0J2EBojcoXmoAJmMAoBIg8OG3mEMU/k/T6UbR3IxtDwAbCxjxqD9QETCATAjYQMnkQViNNwAaC3xATMAETmJeADYR5ebu3ngSmMBCuIuljPfVZ5W3HSnrmKhVw3yZgAhtBgMiDj0siTPFUSWdKwkcA3wGSH/GDD8GvSj84JeJXcPHSz8Uk/V7wXyDsEQOEMtDbhX9eS9Khkt61EXQ9yNEITGEg/GV4GUdTcqaGtki60kx9uRsTMAETMAETyJrAFAbC8ZLukvWoq5U7SdINFqi3VTYBEzABEzCB0QlMYSB8WtJtRte0usHfSuIHYSxDxvNBSfecSW93YwImYAImYAJZExgyodYNbFtJ+CEgnIuxbb9D+LmepP0aiBD+8/xwLkfcLiVNfxnO5Diz4wfhPI6zOrKJYSRwLkfSkBuGGGP02FHSTuG/L9FgQLxC0hOyflpWzgRMwARMwARmIjCFgZBSnQn7O4kLmOjvIenDI4+fcR4s6XHBUKlq/hmSDhu5XzdnAiZgAiZgAoskMLeBcH9J706Qmrr4CDsMX5XE7kJZHi3pNYt8ilbaBEzABEzABEYmMLeBcLikAxNj+FE4Jhh5mBdo7m41OxR7SnrPlB27bRMwARMwARNYCoG5DYT/lHSjBJz3SrrfxPCIGf6aJPwhYrlx+P8Td+/mTcAETMAETCB/AnMaCDgunpJwFMT/gCiCD82A7VGSjor6weGRBCM4Q1pMwARMwARMYOMJzGkg7CXpmARxsohtPdMT2UXSZ6O+KJe6/Ux9uxsTMAETMAETyJ7AnAbCyxvCCL8gaeeZiF1X0jeivr4i6eYz9e1uTMAETMAETCB7AnMaCKzYWbnXCVv++89EjFrs34/6OlrSPjP17W5MwARMwARMIHsCcxkIl5F0ToP/wQMbQiDHhHk1SSdHDToHwph03ZYJmIAJmMDiCcxlIDTlP/gfSRgRRdrkqcFeU9J3o07YPWAXwWICJmACJmACJjCwdkEXgCQgSqVY/pykXbs0OPBaijL9V9TGvSV9YGCbvt0ETMAETMAE1obAXDsITQWcXtKQQGls4LeSdGLUKMWl4qiGsftzeyZgAiZgAiawKAJzGAgUbDpL0lYJMntLentPcvcNxZ22kfS8Un6Duib3KOVbIAUzWRwtJmACJmACJmACMx0xkPzouARtkhNR7fHMHk8EA+ebkq4d7n2ZpANatEPdhVeH66gImTJeWjTnS0zABEzABExgvQjMsYPwDkkPSmBjq//WPbGSnfEH0b27SfpUi7YOCrsOXDqk/xZd+RITMAETMAETWB6BOQwEVvjXSaA5JBwN9KGH4YEBUsj1SwmQ6trcTtKhkrZIerEkoigsJmACJmACJmACgcAcBgIplAlhrBP8AT7S84lQfbEo7vSrUE+Bf1pMwARMwARMwAQGEJjaQNgpbOHX9UPeA44J+jgIsltAqGLR9vGSKOVsMQETMAETMAETGEhgagPh7yU9PKEjE3yq/HNqeG+R9JBwAYYGOwnvG8jDt5uACZiACZiACUwcxXBxST+WdLkE6ecEX4CuD+ORkl4X3cSxAvUV+uxEdO3b15uACZiACZjA2hOYcgfh8pJOlXTJBMXbSvpMB8oXk7SvJDIzXjS676ehXLOdDTvA9KUmYAImYAImUEdgSgOBbIWfb9iluGkpTLGsJ0mWLi3pspL+WNLTJWEklOWLkujPcmEC8LvGGoL5dYhYmat+xxoi9JBMwARMoJ7AlAYC6ZObkhb9vOHhsEvAUUW8W1B1C/2QJMlyYQIYaTuvIRgMg3+VdIc1HJuHZAImYAIrJzCVgcAqn/LOc2QoxP+AVfJ5K6eZnwJwIcx0que86hFTsnsdd0dWzdX9m4AJmMBkE8fVJPHxnkNOD/4Hc/S1xD44lqFGxZxGQnnbv80xQNd78DchcuWEJT4U62wCJmACuROYatLYXdLHEoNnMjhFUnlS4CiB3QeOFS4Vfvjv1BEDW+i7jAz6EpJuH1JAswpnlwJ9Pxx8JtpMeCOr5OZMwARMwARMYD4CUxkIrFgPTgzj7LDqb3Ms8PvhnHk/SXtVGAsvkvS0kZDdXBKFnP4i0R47FqzKqT5J9ITFBEzABEzABNaOwFQGwrclXStB658k3b8HTbaTKchUCCt5MipS72GIsEPxzFJNCNomTPOMYJRQEpoaDoXgYHnXlsWhhujme03ABEzABExgdgJTGAhXDdvxdYNh4r2zpI/3GO0NQnrl4lYSIzFxDxEYvFPSnqER9MMouLEkdgtiuU3QO87tMKTY1BC9fW/eBDiaspiACZhA7gR+Juk3VUpOYSDcU9JxCSI4l/X9eJKV8ayo7Q9JusdA+u8Ozm4FC3IqYAj8sqZdEkB9S9I24ff4J3D88caBevj29SFA/o74PV2fkXkkJmAC60bgjqFm0oXGNYWB8FxJrKrr5LsNxw8p+BxbcHxRCH09e8DTulOoJFkkX/qepJu08C24haQvRP4QPykdPwxQybeuAQEMhDb+NWswVA/BBExg4QR2lfS5qjFMYSCc2JDVkBX7A3oCZbfgn6N7u6ZqjrvF+REfg2IngN89TtLfttQNPeLdizF2M1p27csyJ2ADIfMHZPVMwAR+R2A2A+GKkrY0xNzvHSIA+jyfuDrk0FU7paGZ1Asj6VxJ24aQxja6cT9hj4X8QhLjJzGRZbMJ2EDY7Ofv0ZvAkgjMZiA8WNLbEmRwhsD/oE8eAY4BMAq2Du33jYTgdtr6gaQdIl1J20vug7aCoyLhmrHD4lGS9m/bgK9bWwLk8eBdtZiACZhA7gQ4aufI/EIy9hHDq0MegTogX5K0U09aFGxid4KjAeTxkl7Zs60dJX2ndC+1Iw7s2B4OjbeM7sETlARPdQ6OHZv35SZgAiZgAiawGgJjGwiUbma7ok4o00wior7CrsEfhPS6JE2iol8f+aOKYw6SLZF0qYvgT1HO53C9EfIydNHB15qACZiACZjA6ATGNBAozMSWO9urdULJ5tQRxOgDrGnwaEn4QsTy55KO7KjAWyXtU7oHw4W8ChYTMAETMAETWCyBMQ0EVtKsqOuEbXecAFednhj/AxwJi6OKQt9HSsIJsovETpPFfe+XdJ8ujfhaEzABEzABE8iNwJgGwpslPTQxQOIsU8cPc7Eh8yLhjWVB93/oqESVz8UY2R07qpG8nGOTp4zZYCZtETVyQI9dn0zUtxomYAImkDeBMQ0EqirunBhuHyfAKejdqiZrFBEY7+jYITkTOJqIBUdFIjWo1bBqQQ92S8Z8zqseU9z/9yVdMyeFrIsJmIAJrAuBsSYOtu1JLXuZBJgHSTo2A3D3lYSzY1nuJ+m9HfU7IkRTlG+jZsRJHdua6vJPSbrdVI2vsF1CZfFnKfuArFAld20CJmAC60NgLAOhnDSoTIiP+ZUknZYBukdJIl9BWciKSOKkLvJSSU+quIF8CuRVyEGoVEnFy3UTfFlOXrdBeTwmYAImkAuBsQwEVt4px7wvS6J+QQ7CeXxVOCOlm/+lo4KH1+ROoGDVBzu25ctNwARMwARMIBsCYxkIPww7BHUDe76kZ2Uy6rpiUmST6lqC+jBJ5E8oC8cY78tkvFbDBEzABEzABDoTGMtAoIRzOWwwVobdBcL/cpAXSHpGhSKUvPxkRwXr2qIYVSrks2M3vtwETMAETMAE5iUwhoFA6OKnGzzlKdNMmeccpO5YYEwDwcmScnjS1sEETMAETKA3gTEMhGMkMSHWSW55AV4s6ckVyu4u6RMdSdYdMdhA6AjSl5uACZiACeRFYKiB0Ka8M45/HDFQyTEHeaGkp1Yo0scHoc7Y8BFDDk/aOpiACZiACfQm0GQgUMqYZDuEKJLjgJ+bSGI7/maSKExEGF2T/CpUYsRYOF4SCW7wWyCZEL9DKL9MLoWp5XmSDq7opE8Uw8skPbGirT45FaYet9s3ARMwARMwgdYEmgwEqjPuUmqt6Z6mzsmJUCXHSbp3080j/B4HRZwLy3J3SR/u2P4rJD2u4h6HOXYE6ctNwARMwATyIpCa7K8RHAuHGgRtR0wdhFQth7btNF33WEmvqrioT2gi7dBeWfocVzTp7d+bgAmYgAmYwGwEUpP/bUJ0wlzKUH757TN0RsrnqpoLfVJBVxVrYgg3lPT1GcbiLkzABEzABExgEgIpA4H6Cn8iafvgK4C/wHmS6o4IUJD28Eng3uKf/Hv5v39P0qXCD34OP5F06CQjvHCju0k6oaKvh0h6a0cdXi/pEaV74LO1pHM7tuXLTcAETMAETCAbAnMdH2Qz4FD9ryonw8MlvbGjolUlrrc0ZJXs2IUvNwETMAETMIH5CWyigUDGR0ogs6sRy/41RZxST4UjkT8qXfARSXvM/yjdowmYgAk0EmDH9uhQG+dWkr5d8S1sbMQXLIYAEYNEHPaSTTQQAMUkTlhjLAdIImyxi1A2GufGWB4o6V1dGvG1JmACJjATgTiK6+wQul5eLM2kiruZgQC75WQy7iWbaiDsJ+k1JWKHSCJHQhchDJRU07FQWvkbXRrxtSZgAiYwAwES27GixP8L+ZgkStNffIa+3cVqCNhA6MGdKIOvle7D/wA/hC5yhqTLRzeQ9OmywamzSzu+1gRMwASmJnCEpMeHTn4haUdJJ9tAmBr7Stu3gdAD/yUkUaI6ntxPknSDDm2RXfLUUpGq10p6VIc2fKkJmIAJzEGAhcspIcKK/j4r6bYhMs07CHM8gdX0YQOhJ/f7B1+B4piF1T8WNSmf28iBkqgMWQi1JnYIDpBt7vc1JmACJjAXgSMlPSZ09ktJ1w4GA4uiTT1qnov9KvshNQGOqL1kk18Mohk4j7tCRI7UyU9oSfJESXgBF/IeSXu2vNeXmYAJmMBcBNghOE3StqFD8sDcYa7O3c9yCWyygcBTY4L/XFRwigJSV5Z0TsMjJVLh2Ogart+mIYnUct8Sa24CJrBkAm+QtG8YAIncbi7pP5Y8IOs+D4FNNxCgfFTJbwDfhKsk8ON7wM4D2SAR/uDuJemD8zwy92ICJmACnQiwgMEHAfmopLt0utsXbywBGwj/d/52mKSnRhP+6eG/yZRYpJbGsZEqkBxBFE49vw7pqOeoIbGxL6kHbgIm0JvAQSF8u/jW30fS+3u35hs3ioANhP9/3DgtYhAUljaGAY6HnN2RSAQHRIyEQvACJmLhyxv1xniwJmACSyFw6VDnpvhufVLS7j4KXcrjW72eNhAu+Ay2k/Q0SSRSikMgi6t+EypcEs74JknsIFhMwARMIEcCD5b0tkixB0h6d46KWqc8CdhAqH4u7BhcVRIlr/knZ3g49ZBciToOFhMwARPImQC7B4RsXy4oSTz89SQRzm0xgVYEbCC0wuSLTMAETGBRBB4k6R2Rxvx3HHm1qMFY2dUQsIGwGu7u1QRMwASmJECWV0K2EfypyPtCemWLCbQmYAOhNSpfaAImYAKLIEAJenwPiu/73SV9eBGaW8msCNhAyOpxWBkTMAETGEyACKtdola2ChFZgxt2A5tFwAbCZj1vj9YETGC9CZDl9Zho94AKtVSqteRDgDoYOMBT+wdnUpLu4RhP3YSfh0KClOL+xgCVrxnyX3xe0sv7tmMDoS8532cCJmAC+RGgzsJuQa0za8K189N6fTW6aHgeGAQc/dwoGAX8/5QQUv8TSe+V9D5J1PppG1aPcUB+nq3D/ffri9cGQl9yvs8ETMAE8iJAjYUvRrVlXhTyukyp5SMk/VXYsThX0tkhLBzjhH9nVYxzJBNekzBpXjL84FR5mVDjhjo3V5T0D5Ke0tRIJr9nkr63pENCkr0hcy1OppTq/lNJJLtKsaQUALsGhOcjg3aQhiidyXOwGiawcQT4kPLR5GyZH6r0sU1Jjg4+zJTzJXfHTzeOzGYP+OOS7hgQkAGWyaJIFT8FGeaPM6IqkVP0Ebf5EUl7TN3JgPb5u8QwOFrSrSNDrU2TPCd+YJqal8n2+9iav20S/f17ZBzQL+W8T2qjQNU1NhD6kvN9JjA/AT5Afx0q8xVGQflvmI8MKwxWbYS6/Y2k18+vqnucmQDplFnBF0Xk/i5MJFOqwSr15IYJbcz+mXj3GbPBEdticqZg3y2iWj1NzX9PEs/puHCcwG4Lz5F0/ztLeo4k/BVi4e/7m5JuEhYCxe/wZfh6yTjgd2QEZtHQS2wg9MLmm0xgVgJsu5L0hip8fAi6CB8UyphT1pwz0B93udnXLoYAW8+3D9qyc7R9eO5TDoBJESM0rlEzZX9Mml+YsoMebTOHsqrHOZRjkZTwXA6Q9IlQEZhaPymhbXYKaRtDoigSyD3sFNwy3Ey2TLL8Fnkvija3hP/XexfJBkKPN8K3mMCMBB4i6cXhHHNot3hIvyZUJB3alu/PhwArTirQYkgir5jxGbNjQb944fPDv+Mcd3VJ922pB5Pmt4L3PgYs7ykpofmJJzd8GnKSPws7evhH1M2ljOFVwX8C/xCO//rINcIOxQ3DzXDB0KDIIDsHFBMsy/MlPatPZ8U9NhCG0PO9JjAtgScG44APbyx4N380bO/i2XwpSdcNOwzFFnNKs0+F3QRWf5blE6B8873CJMUExGTyowyGtVcIuaxThUnuruFdzkDd1iqwYj8iOA3WzaH8XXINxj01McaQK0j6t/C3TnscJbIrUVQgjvvgdxgTQ0Ilk84QYwzIbZiACfQj8BdhJRh/gP4zeEUT+lS1EmGL82Fh1Xbjhm7xiubj3NuBqd+wfNfIBMp+AC+QdNDIffRtjuiG1AoWB0cmvSXJTUNFzOvUKI3RgzPlYyR9e4KB4YRKVsymYx0cltlVaDrGSKroHYQJnqCbNIGBBIiZZpVfxEqzGuCck5ClNsLfNdvMf97gQHZWcGrCR8GyTAIvlPTUoDqTE05tVG7MQb4UnPbqdMEvZtccFG2pwz0kvSvha8DRCL4CHJlMKUcGAyTVBwsAEjG1zZ1Q2ZYNhCkfo9s2ge4ECE37YXQbH/2DJbEy7CpPkvTShpuIdsDxcdCHpKtivn4UAhwlfCcyJOf0PWgaAMdirF5TR17sYP1LU0OZ/J4dgb9NhC4SgUDNC0JNp5brB6fEVLIlckY8dKgiNhCGEvT9JjAugU+HNKxFq8+W9NyeXfABebWk/Rruf4akw3r24dtWR4AkPPG7wcQx6Mx5xKGQr+BDifaYUEmE1Ndpb0RVG5viqOTpCWOHMVD7gsiCuQS/kz9MdHY3SccPVcYGwlCCvt8ExiPA+WK8AsEDGoeoIUcAODCRNCkl7FLcTNJXxxuKW5qYAOFvbCMXYa+k4yWlbu+QtpH1fXJw0Ktrlmx/cUGpkbsfrTl8KMhHUHYULjrgb/S2kk4crcd2DZGlkWdeJTguEknSJntlsjcbCO0ehq8ygTkI4PX8+KgjYr6JVuBDQPGWvrJnODtN3f9aSY/q24Hvm50AExcrW4RJit0DjhtyEWoHpGoA/KOkP8lF2Ro99pfEeX9qnsTIwdiZW64Wopiq+iUnQpOTcit9bSC0wuSLTGByAhwH4A8QJ0MpOmUlwHYtOREIcewqxKYT0khWtTph5cmW75Ddiq56+fp+BPBgJ4MhyZAQVq84+w1eMfZTp/IuwiyrYvOLi1kBf2DE/sZuCv3+KeFzwLHCvpIwdFYhzN2k066KAhkt46QNhFU8WvdpAhcmQNgUKVRTwiRfFGHpyvBfJf1Bw00kfnFa5q5k578+3j1goiL/f+zYOr9GF+yR3Yz/Sqy80RljldTQOQqrb4wu8otUCcY00QpECa1S3hIWDWUdSFBVd/zQSV8bCJ1w+WITmIwAkzPb/E3CioH48a5Sjo6ouh9HLMLmLHkTIIwRowAhlHCnzNTF6TUVdUOynyZjdVVDwijgyIBaB3VCKWVqLqxaOI7kWDIWIkfYCRxlN8kGwqofsfs3gf8jgCMUEQtN8pngFNV0XdXvmxzYcpxs+oxzne95ZkjvW4zxRmG1ntOY2eLeO6HQUZI4389R3ibpwQnF8Pe4SkhtvWr97xkKPcV6jJpbwgbCqh+x+zeBbgYCH6g26ZSruJLnngI7dYIBgbd2kyHhZ7Y6Avge4KCG5Fr+ON7hqCKF0yxOjLkJTpNvSkQsoG9OmSqJnmA3JpZRq3jaQMjtFbU+m0oAh6c3tBj8kAQonAtTHz4lGB8YIZb8CBAVQCa/IkEOiXlIu5uTsL2NI23KiO17TDblOJkLqZlQrogY9/kfITSTjIk5yK0qwitHNb5sIOTwmK2DCUhbSSJ/eio7Git76i0Q7dBHmlLf0iYe8ktIXtNn/Eu+h0gUVub4kiAnSCJvRm67PU9rSLpFIrDbZfggOBbhaCE1J1Iu/ZiMdIcjKdkLwf+AypLkQRhFbCCMgtGNmMAoBMjh/pJES+REuMuAnkiE1BQfTZil0y4PgDzRrUwGGAWFAUnI61sn6mtIs2TvS72jfxnlbxjSz5j3XksShdDqohboixwTVEckA2QuQiZFMioWQq6UO4+pnA2EMWm6LRMYTuBvJJGFLt6iZceAM9uU41ebnrdEsfNV1/PxY6VqyYsARhu7B0WIK5PV9TI15Nimx4mvTihL/c8Z4cXn5iuScPZMSY4GGfUhSORUCDVb/npMtjYQxqTptkxgHAKkz8VhilArdg0oaMPxw1Bp2o4mMcz9B3bCEQgrMirfkSiHVRnHFhg8THTFDythvj/88O/xfxf/r/g9KqE7P4Rv8VP13+x8cDyCDwU/h4YEUQOHtPLbqe7J1nwhVPV848q1qlaA8/mUkck7QYKfXATDgN2DlPBekZSqT5KyKcdJ8ag4F8Mo9RdihW0gTPn43LYJ5EOASbupPu4QW1kAABPOSURBVD1HHC/rqTLOacdK2j0YBDl8WzASOFIZWsCIgkhntqiM2RNd420UAbp5uAoDiDz7uTjKxcpzRk+YYN2zJwKDCpQ5CVEARAOkhFU5q/PcJM6d8vWQm6Gvf1Ll2HL4I84NuvUxgXUkQPKXnRsGdtOeBZtY0b48TFy5saO+RJsEVFV6bxvOeIsJZBUFrTC42EUqvtVEMrw3N8hBn6ZsnblVDeXvgbwBTfPg1UNhrByxs1vDbhqGY9MOYWf9m8B0btA3mIAJZEeAc1ZWb6kQLlapt+yhOWegj26IvujR7Gi3PKJl+Gi5QzL9vVnStaNfEIZKe3NKXPSIoxV2D0bzUh9xIBwl4eOCfnVyp1K10hG779XU4ZIObLiT4wWOzTYysscGQq/3yjeZwKII4Nz2/YZJ/K7B16HLwN4u6UEtVmBd2hzzWj7urP661ikghe1hYWIo60PNjKajmrHGsJukT4TnxuqQXBkYLTkK4ZcYoVXFxgp9uQYjIgfBLwaHyqpiR7F+GBFPzUHhVehgA2EV1N2nCcxHgL/xUxo8y7uWh8WhkCp2nDnn+g0ha+Q+IdtgW9rkoiARFY6adePC8ZG02HMIBhiMERzkiA4Y9Yx5xEFgYJK0qY4bTrYc2eQSQku1xqaCRuzYYNScPiKnRTWV6x/3oiBaWRPImEBVtrWyuhw9UJ63jWAccKzA2X78/WCFy6SMh/r3JJ0VIi+YGIrMjA+LDBW2yV+R6JC243BP0grjR1EnfMwpVY0zISGBlMfukhES/wtW60xiKaFNPNrpZ0ohnTLhjMWK/KCGAkhT6tKm7Y+HxE111/6VJHIg5CIUJWvaGeAZp0qk5zKWyfSwgTAZWjdsAisnwN83lR/rJj0mdSYeci+0FUrJEg4ZCxnc2JZ/XaIRDAsMiEIXykrjhV0n5fLXU8Whoxc7DWzdt/0eksyq6ey6Lc+668jYt1f4JdvyRQbFoe1OcT/b9Rhn+LpUCe8ZhiqZPHMRch9gFKaE6BdKV2+stP2D2FhAHrgJLJgAHu+pojisUGMnvKah7ioJT/X4nJnaAEz0TStqVsTsLBSZAJtWlCTU+UCkEHkV2BUYW+Bzn5J/BhknU+V+2XJmwh6lpG7FgJho2XnBOQ5hp+UJYw98xPYIJYVZnRCSyfFI0zsyokrJpnh/MWiaip7lFnUxF5/f9WMDYXbk7tAEZiHAR5AJuS6rHVELhO91iacvF3ti9+FFLbfynxjyCBTfHKIEypXoYjA4CZLXv5BrBkfLseCRjIrS2UxuhU5M+Hjao9e3GmL22Z7GgW0KIdMgBhHCpIqTKbs0uUpV2eFY13NCFdEuRz5TjpWEQm2KXJGzAcfLjRUbCBv76D3wNSeAE+Ef14yRzHF8JLt49z9O0hFhMmXLmLK3h3RYRZ8riUm5kKaqkeW00ITRjemgR3GeOHX1icE5Ec925CnB+Kl7TVgxN21R933FMAaKugD4e8TZ8vq2OeV975T0gEQHqwgPTY2XnQHe35Tgk5MKC56SZzZt20DI5lFYERMYjQATCmlYq+TLkti+P7Vjb2yrFyFhTAh417fdYqduAJneiu/NJxsc2oilZ+UcV7Zk271tf22GRqEbzvk5P3918KGI2yczJJNEbNTE7WIkYWSRBntMIRNhER3CNviOmXvR81yIsEjlPyDBFKWScxGObDB4U5Jr1clZGdpAmBW3OzOByQkwGfMxZuIrC05XxNb3Cdv6O0k7heiEYvu77WBYXWJUFEKRGSblOin7TpB3AKfFsYVjDoyestNl0Q8pltklqRNyS3D0MZZsEybb4rvM8U18zDJWP2O2c4sG50OMnDoja0w9urT1jpC/I3XPGHVJuuiU5bU2ELJ8LFbKBHoRYDWH30FR9a9ohNUuZ6kUpuGDPbcQvbBd1Cmr9+MSSjxW0qui388RNVClDsYWfhfxTkZ8HTsOjIuQzjHkmVE1PvIFUD8j9zNwjmk4rqmTb4bKk2PwSbXBXIYjLMcCHEXhY1Mn+B+w+5MSDMPnTa107u3bQMj9CVk/E2hPAOOgqhgOxwqs/sfcom+rFUWGyh9rdjdSqWvLVepIahNHNLTte4zr3hrCIOvaIucCE/lQIbcCPiGFMUKc/tOHNjrD/SSWovJonRB50nXHqY/avN9fiG5MObWeEHbSUv3s0THJVh+ds7/HBkL2j8gKmkArApT//dOKWP7XSNp/ikIurbSSyjXr2xwXsHVPiuRCKHf82Zb9jX3ZdVtUg7xiyPEwpG+iPOJKmjeQdNKQBme6F6MmlaPh7i0jBoaqGyc+YpeM45o6I5ToFUJ2U0J0CxlGcxMShmEMsUvC7g3+PJOJDYTJ0LphE5iNwJNqShHjrIgX/CqFzIpMoIWQaKkpxW3sxc99JNn54ooGwTeSqI8bJvofWg74ciEdNo6RCMYeRaFGr843MkMmKqI/6uaR8yQxti6htH1UxMcBp9vCUZKkXa9MNNSU9ZFbdwhZQfvoM9U9GM0Y2EUektuHvCRT9dc6c9hkCrhhEzCBQQSIQWf7Pf5IE29OYR+2x1cp1DQgkVKsW1NJafwnOHeP78ERjmOSVQlHCDh4pjIFsorGGOoj5d2DnMsLx+MjFwQr9zqhlHLTSr0Pr/I9FAzD8bAQcn+kQnjjPBN1/WNskKwqJyHjaXHsxLuGETOpeAdhUrxu3AQmJUCiI+oHxBnhqHHAxHz8pD23a7zq/J7sgKkVJTUejio1TxnqlNNZO236X4VfAM6KOC3WSdOqte6+S4YEUPggICRpItIk990DdG2KBnhLOPbqT77dnTi8Yigj5NsgnXcqKRN6kbo7JTkaCHGiMhYF+OZMKjYQJsXrxk1gMgKE/bHtftmoB+LRdw7FiibruGXDGAJnl4yXNslnOIdnRR3LKo8YCj3uHJzW6iIaOBYhZLJrlEgcSsmZOcWBmOSWIE3+Bw8ureynGBO+AtRVKJ4LBuZrGzqKV+J1l+Z2xMDOG0Yy48R4JBKInZBJxQbCpHjduAlMQoDJl4iF+GyfUEI8t7tOUCgYe+FTn2EMIUyRcMVY2G5m2zkl5Ed4dI/7xtC5qQ3Of1MRC035HaraJ3NjkQ4bp0ScE5cgvGu8K3VzCJMYk2yfnBtdxk/RL/w1EBz3igyUqTZw2iWvR0qoxYHvSQ4CY3KbYAwhs70nNhByePzWwQS6EYizGnInoXY40fVJRcz2fRwehgPUGOGQ1DKIC0G1zRlQToHM+Mj8OPlqqcUjoFzxoYnrGDNRD23lYEkUreI7zISK/0WX9Ndt+5niuqYkUqzqCXGdUvAJIQdF4dyJ70pVmG9ZB3IlNGUS5ZiuLoHWlGOqapt3iuOFwgcGp+SXz6GEDYQ5KLsPExiHADsHrCTiiZdtx7uGss59eiGRTZGlcKyVCWGJnKXH3xc+yDjfNRkfVIskw2EsueQE4APNMUmRcrqKN/UvSJfcRmIjCl+S3dvclMk1nIFjuNUJO0HsqEwphPDuF3XATgJ1H9oIxgSJleoklwqa7IiwU1OEkvLv7CRMHRlyPhcbCG1eJV9jAqsnsFVYRd8hUoWMcExI+B70ldgZ7qWSnty3oeg+6i5cv9TOp1okp+EWogXKq/BTSnkRRlCxdxNVPhJxYxg4hJ81Cc+NJEPF2TkOp8TnL0Uw+FLFjCgBzvb/VEKeA47ZitBGjtjQp23FyHIyrrKeuRhs5aJhezaUcB+Vtw2EUXG6MROYhAAr17dLemDUOp7bFPUhaqGv8JGlKFIhY2xdMuFx1FHEahdtcwSC4dAkZwRHvfJ1TdUfm9od6/d4yGOwYLBVCQYXxzapsEzY4M9QJIOi4BO7QEsRfAvwnagL+2Qc+Gpw9DWF8I59TFJsLL9f0n06dIaTH/fUCUY342xrcHTouvWlGJqMs+BM/hCOPpp24Vp30HShDYQmQv69CayeALUIDojUYOeAgkZDtxlxNIs/4kQPUNJ5iPDR5eMbC3oyobYJ3cPgqZp8CQOc2uGt7bibdhGaVp8cwbCjUuweYPiRL2IpUn4fy3qzmmdynWoiI0TxTaUaGV39VGDPblV8XFceB062Tc6MUz0z+H0+OgYhsgUjuyhHPlW/F2jXBsIsmN2JCfQmQMEYnNkQJlhSqxJyN8bHl2iBuKoiK7DUqqppEOVqhMX1XUrnsvtQVYmyqcBTk25j/p7yxYSY1q2gCVekiFNVoh12D5hAyTCIMAnsMqZyM7QVx+NXdcf2fVM55b5qYlzxPsXS1jmx3OdDJb05ociWhjTSfcfQdB++Rh+Mdkgo3MXf/KRplauUsoHQ9Kj8exNYHQGK4HBOXQjbjXwoxpLyih7nO7b4+wpx71UOeseE45A27dYZCFOfabfRLb6GIkQU9KmTuiJFhM/haFrI0nYP0PucUv6NMoOpntWtg59GORdFX4dIjDVW5EWSqvI4+PvgzH/uaIZ3h6OEQp+DJL2g6ws6xvU2EMag6DZMYHwCnGPjtFaspt8jidoKnInyw6qi+Ce987fMh5N/Fv/OCpePIG2QUIlwMJy6yAjI+W25Ct+Q70FVYqSCCqvpto6UHEeQXbAsfMhTXufjP4F0i5wPp1Z0HJUw8ZTzUsS5FFihEtrIs1yK8GwYU13CKMYxRaEj/G2oUcF7VpYhmTa5N1Xng78xtvvbvr9DnyO+RVS/LP4WyUbalPVxaJ+19w/5IEymlBs2gQ0ngDc256MUoSmE1UzdT2EgFNcWf9exsdD0t07bqY9+0yMp58Mvrm+TPTFumw8xjoBV0pRjv0nHMX8PK0JEU4mTDpHEEVEhVDYkn0PxLNoUrhpT5zHawkeFtNJ1grGDITrUPyZun2JYRNdUGY4cNxAW28a/pUpnngWZFakrUfc38lVJd5zYSCCcET+U2Dgg5TiLgpUZkE0fjTFeKLdhAibQngCrFWKdq1ZK7VvpfiUV7u7U/bbz7+A7giFQtVX7jxU7FalucN67Xc0FYzhR9hxi5W1UM4yTTJUvYtLCL4MteYTcEIQzIuwwcKQz5kQ65tiq2sIo4giKMdUJeQiKzIZD9OGd4jiNHBik2q6bq8Y4zmCXjUiSOCqirDsZQPcKhcSGjKvqXsJ6OZrjfSrGScgxRsvKjIPiD3vswbo9EzCBfgTYOWASIbpgbumTJrjQcZ9E5ciHNTiClcdZlWq5uOZrkshJP4aD5hh8Cb1kx6PI5FfVZpE4iZUh28dF1kQK7fDfSxK86HkGKekaTRC3xQ7BjYKBiJGBz0FqEct7wBENxulQwUhgN4JaJnWCM+QTJOEjMIYw3kdKelG0W4hBgGGAgbBy8Q7Cyh+BFTCB8wngL8D2891WxGNIAhY88as+rJzfshPSJZacreQXJxiwyjthRYyquuVsnNVf3beU83p8MJhUMBIQiliRGS+33YMdg67FURPvJLsF1PxgFU/YX9U2f8zlMEknhlwYjI/xn1dxBEDbtIVfCY6bRCdgEBSJj9o8Yrbk49wgbe5JXcOR3kcbokrYFaIaJGm3++Z5wLBkJ4njGnwgCiGMl/eJ3bwsxAZCFo/BSpjA+R9fChytSvqGOJK4hQ911beEqnpU1+sirOSojFhOtFS0Qfz7vl0anOHauuRORddHhrTDxe4B/hrvnEGvLl3gyMpuSOz30uX+VVzLEQSRPWMKxhEGH4ZHyieH3QuMCTIdYigQ0po6DsDHAGOLdqm/QdXOQrgPo4pU21kZjTYQxny13JYJ9CfwHEnP7n/74DtJGNOnkmMqZW3X44ViECQaqjsPJr6ePnMSnMlShhCrzuJbS4pitsVzEzzlWRkvSXBmpVjT2IJhQIRPKkdC0SeGAjsk7Apx/EIFSFJAYzDgk0OdE3ZG2CnBSMDwjeddDAL6Ikopl6Oz3/G0gTD2q+X2TKAfAaoEsm25KinqzHftnwyPZNYrC6tqttG7HC8UbdRNVl8KH9uVOm5VjJXtcraH66Iv4lueIYlt+NzkQEmH56ZUQh+yiRIVMqXgMMxxFxP42HMlfxfkN2CXLU53PuV4Orc99qA7K+AbTMAEzidABMGqqvmxcmHbs4+wNc2qqagISRucO3OmHCcE6tI2Ey7nsLtFN2EckF4aR7EchQ89HvUpYSuaHBR9jKapx4yvCPkL2N1gK5y8GfgI8MOZ+ZC5glUzP0VeDtrDIC3/1PXBvejBqhxDjBU6K+65SmPDZX9JZB5lF6CvsJOE7uwU4m90Wt+G5rpvyEOfS0f3YwImkDcBnNj2DluqTILHhi3XIVqTihj/BiIEyAnBsQNZFnMVGHy/YQJ57oqPkXJltxS9eMY4mrJzsWsw9ppyh7CThn8BERKkMcehN7ujhLoHYANhKa+m9TQBE8idAGmxy9kpC51xAKR6YzmzYu5jsn71BDAY2BEiWRa7LuwucPxFjgt8TTBs8euhNscixQbCIh+blTYBE8iQABn9SL9ctap8vqRnZaizVTKBWgI2EPxymIAJmMB4BKjCV3aeY1VJ1sQpPO7H09wtmUCJgA0EvxImYAImMB4BKjxSyTEW7x6Mx9ctzUjABsKMsN2VCZjA2hPgeIF4+OtHIyVDId7rFhNYFAEbCIt6XFbWBExgAQQIWSXLHkIlwoMXoLNVNIELEbCB4JfCBEzABMYlwC4CeSAIyyR/w2LC2sbF4NaWTsAGwtKfoPU3ARMwARMwgQkI2ECYAKqbNAETMAETMIGlE7CBsPQnaP1NwARMwARMYAICNhAmgOomTcAETMAETGDpBGwgLP0JWn8TMAETMAETmICADYQJoLpJEzABEzABE1g6gf8FK3FIPs1u850AAAAASUVORK5CYII=;" parent="1" vertex="1">
          <mxGeometry x="280.52" y="205" width="70" height="28.54" as="geometry" />
        </mxCell>
        <mxCell id="zXIRQ22W420NdYz-Z0Ta-63" value="&lt;font style=&quot;font-size: 14px&quot;&gt;-40dB/dec&lt;/font&gt;" style="text;html=1;strokeColor=none;fillColor=none;align=center;verticalAlign=middle;whiteSpace=wrap;rounded=0;strokeWidth=1;" parent="1" vertex="1">
          <mxGeometry x="370.52" y="200" width="60" height="20" as="geometry" />
        </mxCell>
        <mxCell id="zXIRQ22W420NdYz-Z0Ta-64" value="" style="endArrow=none;html=1;rounded=1;strokeWidth=2;endFill=0;" parent="1" edge="1">
          <mxGeometry relative="1" as="geometry">
            <mxPoint x="530" y="160" as="sourcePoint" />
            <mxPoint x="690" y="310" as="targetPoint" />
            <Array as="points">
              <mxPoint x="600" y="160" />
              <mxPoint x="660" y="280" />
            </Array>
          </mxGeometry>
        </mxCell>
        <mxCell id="zXIRQ22W420NdYz-Z0Ta-65" value="&lt;font style=&quot;font-size: 14px&quot;&gt;-40dB/dec&lt;/font&gt;" style="text;html=1;strokeColor=none;fillColor=none;align=center;verticalAlign=middle;whiteSpace=wrap;rounded=0;" parent="1" vertex="1">
          <mxGeometry x="620" y="180" width="60" height="20" as="geometry" />
        </mxCell>
        <mxCell id="zXIRQ22W420NdYz-Z0Ta-66" value="&lt;font style=&quot;font-size: 14px&quot;&gt;-20dB/dec&lt;/font&gt;" style="text;html=1;strokeColor=none;fillColor=none;align=center;verticalAlign=middle;whiteSpace=wrap;rounded=0;" parent="1" vertex="1">
          <mxGeometry x="670" y="275" width="70" height="20" as="geometry" />
        </mxCell>
        <mxCell id="zXIRQ22W420NdYz-Z0Ta-68" value="" style="endArrow=classic;html=1;rounded=0;startSize=6;strokeWidth=1;" parent="1" edge="1">
          <mxGeometry width="50" height="50" relative="1" as="geometry">
            <mxPoint x="630" y="270" as="sourcePoint" />
            <mxPoint x="660" y="280" as="targetPoint" />
          </mxGeometry>
        </mxCell>
        <mxCell id="zXIRQ22W420NdYz-Z0Ta-70" value="" style="shape=image;verticalLabelPosition=bottom;labelBackgroundColor=#ffffff;verticalAlign=top;aspect=fixed;imageAspect=0;image=data:image/png,iVBORw0KGgoAAAANSUhEUgAAAggAAACiCAYAAAAk5DXCAAAgAElEQVR4Xu2dB7Q1SVWFt6gEA4oCioiRJMEAKCAoEiWpCAKKKNEAwogEGQGJDiNBQUBJCkM0kRGRpCBJRFRQGREjgiAGFCWZcH1QNaumpqq7qsN99/bdZ623/ve/W11hd9+uU+fsc86nyGIEjIARMAJGwAgYgQyBTzEiRsAIGAEjYASMgBHIEbCC4GfCCBgBI2AEjIAROAcCVhD8UBgBI2AEjIARMAJWEPwMGAEjYASMgBEwAuMI2IIwjpFbGAEjYASMgBE4OgSsIBzdLfeCjYAR2AACl5L0FZJeLekjG1iPl7CHCFhB2MOb4ikZASNgBCoI8M7+fklPlHQeSfeRdLrRMgJrIGAFYQ1U3acRMAJGYHkEsBo8VNJNk67vG/62/Gju8egRsIJw9I+AATACRmBPEeD9fAFJl5N0mqSrScrf2VYQ9vTmbWFaVhC2cBe9BiNgBA4ZgXNJOq8k/sVtcDFJ15B0F0kXH1mYFYRDvvN7PncrCHt+gzw9I2AENo/A9SS9OCgIKAm8l1vfzVYQNv94nNwCWx/Ck5uhRzYCRsAIbBuB60t6aWWJH5f0QUn/EqIW8mZWELb9bJzo6qwgnCj8HtwIGAEjICwIL5L0P5L+U9J7JL0x/LxT0lsknSHp1gWsrCD4AVoNASsIq0Hrjo2AETACTQjgVjifpI8FJaF00TOsIDRh6UYLImAFYUEw3ZURMAJGYCUErCCsBKy7rSNgBcFPhxEwAkZg/xGwgrD/92hzM7SCsLlb6gUZASOwQQSsIGzwpu77kqwg7Psd8vyMgBEwApIVBD8FO0fACsLOIfeARsAIGIFuBKwgdEPmC+YiYAVhLoK+3ggYASOwPgJWENbH2CNkCFhB8CNhBIyAEdh/BKwg7P892twMrSBs7pZ6QUbACGwQASsIG7yp+74kKwj7foc8PyNgBIyASYp+Bk4AASsIJwC6hzQCRsAIdCJgC0InYG4+HwErCPMxdA9GwAgYgbURsIKwNsLu/xwIWEHwQ2EEjIAR2H8ErCDs/z3a3AytIGzulnpBRsAIbBABKwgbvKn7viQrCPt+hzw/I2AEjECdpHg/SacZICOwBgJWENZA1X0aASNgBJZFoGZBuL+khyw7lHszAp9EwAqCnwQjYASMwP4jUFMQHiDpwfs/fc/wEBGwgnCId81zNgJG4NgQqCkID5L0wGMDw+vdDQJWEHaDs0cxAkbACMxBoKYg4F7AzWAxAosjYAVhcUjdoREwAkZgcQSsICwOqTscQ8AKwhhC/twIGAEjcPII1BQEIhiIZLAYgcURsIKwOKTu0AgYASOwOAI1BeF0SfdZfDR3aAQcxeBnwAgYASNwEAjUFISHSTr1IFbgSR4cArYgHNwt84SNgBE4QgRqCsLDJd37CPHwkneAgBWEHYDsIYyAETACMxGoKQiPlHSvmX37ciNQRMAKgh8MI2AEjMD+I1BTEH5W0j32f/qe4SEiYAXhEO+a52wEjMCxIVBTEB4l6e7HBobXuxsErCDsBmePYgSMgBGYg0BNQXi0pB+b07GvNQI1BKwg+NkwAkbACOw/AjUF4eck3W3/p+8ZHiICVhAO8a55zkbACBwbAjUF4bGSTjk2MLze3SBgBWE3OHsUI2AEjMAcBGoKws9Lusucjn2tEbCLwc+AETACRuBwEagpCI+XdOfDXZZnvs8I2IKwz3fHczMCRsAIfBKBmoLwBEl3MkhGYA0ErCCsgar7NAJGwAgsi8DzJd2k0OXTJd1m2aHcmxH4JAJWEPwkGAEjYAROFoFzS7pWYQqfJ+m6kq4q6RKSzlVo83FJ75T0V5LeKulvJL1f0keTtq+Q9L8nu0SPfogIWEE4xLvmORsBI7AlBL5A0vtWXNDnSPrgiv27640iYAVhozfWyzICRuBgELCCcDC36rgmuqSCQLpPNNV9kjOCyW2f5uS5GAEjYARSBHhvPimc8j8kCbfB/4Uffkfyf/kb7+/0Hc7vuCH44ffPCj+3k/QRQ24EehFYSkH4TEkfkPTpvRNYuf33SXrmymO4eyNgBIyAETACm0NgKQUBdi0s232T60t62b5NyvMxAkbACBgBI7DvCCylIHy2pOdK+jRJ55H0+ZIuHCwKmLlKgskM4gymr/8I//538i/X8NmHJX2qJBi99PlFwYQG8xeLRYnZG8f7Gklv2/eb4PkZASNgBIyAEdg3BJZSEErrom/IN++tLPovJV0y8a21YhP9bCgIKCYkCXlg5WLGJ+THYgSMgBEwAkbACHQgsKaCwDS+UdLrK/O5l6RHdsx1qOk1JL06a/AxSeeboIAsNCV3YwSMgBEwAkbgcBFYW0F4qqTbFuAhaccFJf3bgtA9ILMk/Jmkyy3Yv7syAkbACBgBI3A0CKypIMBHILKhxEF4t6SLLYwy7op3JH0+T9LNFh7D3RkBI2AEjIAROAoE1lQQvlTS31ZQfI2kb1kYYYiMkB1xKyAPlXTfhcdwd0bACBgBI2AEjgKBNRWEa0r67QqK95T0Mysg/AeSrhj6pYAJhUwsRsAIGAEjYASMQCcCayoIj5b0o4X5kCHsSyS9p3OuLc1fHoqb0PY6kl7VcpHbGAEjYASMgBEwAmdHYE0FgfDCCxUAhydw6ZVuxCslXTv0fQVJf7TSOO7WCBgBI2AEjMCmEVhLQUABeHulnDSpj0mBvIakLoYvk/R3awziPo2AETACRsAIbB2BtRSEW0l6VgW8H5b0xJWA/acQPkn35w+kxZWGcrdGwAgYASNgBLaLwFoKwuMloQiU5BKSyKLYKg+WdPuQkfHrBy4ieoFKaKzpX0O659Yx3M4IGAEjYASMgBFIEFhLQfgLSSgCubxLEuGPPfJWSV8t6UxJlxm48KKSyK+AUKCJQk0WI2AEjIARMAJGYAICaygIRCiQ/6DU9xmSqE3eKtRagOx4XknPlvS9AxdScvoFoWDUwyW9tHUQtzMCRsAIGAEjYATOjsAaCgIKwFMqQOMqIP1yq1Cr4R6h8V0lPa71QrczAkbACBgBI2AEpiOwhoKAclCzEnytJFwGrZKSDl26uRU1tzMCRsAIGAEjMBOBNRSEt0m6fGFepEG+gCQKNbXIvSWdHlwV/yzpwq7M2AKb2xgBI2AEjIARmI/A0goCCgCcAQo15fIrkr6nccq3lvQ0SecK7V14qRE4NzMCRsAIGAEjsAQCSysIJECq1T+gNsIvFyaNMvE5ki4l6Soh+uAaGcmRlM2PWWLB7mMRBC4riZ9DECxWz5dEim+LETACRsAINCKwtIKAleCWlbE/WnEvUIXx3Im1oHT51SS9oXFNbrYuApeTRMbK86w7zKK9v1nSle2iWhRTd2YEjMDGEVhaQfjTFU6W/yXp80ISpI3fjoNY3pUkvbHiRtrXBfyxJGpzfHxfJ+h5GQEjYAT2DYElFQRcBR+UREbDXNjk/zv5I+PyA8eAH66tzeV3JF1r34A78vlQUpsT+RoSXQH8y4bOT/p77W+lNrT9H0kv6SDHrrEm92kEjIARODgEllQQvl3SCysI3GEgN8JnhAgFTqanSLp6pizcTdLPHRyynrARMAJGwAgYgQNGYEkFASLYTSpYXFLSOxtwYj6/kNVx+MZg0m643E2MgBEwAkbACBiBJRBYUkH4a0lfXpkUUQq4H1qECIZXJw0vJIk8CBYjcIgIUJPk2oc4cc/ZCBiBo0CAEgXvK610SQXhPyVRDyEXCGJf1wHzN0n63dCerItkX7QYgUNFgJwezzjUyXveRsAIbB4B9tzXrakgXFPSqypEQwosUWipVW4h6VdDY0pGP7H1QrczAnuIgBWEPbwpnpIRMAJnIbC6gvBiSTcuAA6DHBJiGsEwdl8oyPQjoRGVIf9+7AJ/bgT2GAErCHt8czw1I2AEtKqC8OmSPlaxHvyLpAt23ABcHigEFw3hbZR7/lDH9W5qBPYNgetIus++TcrzMQJGwAgEBMhU/CclNJbgIKAAUHWxJL0cApSNvwtcht+XdF3fQiNgBIyAETACRmD3CCyhIFx1IA3yXSXhMrAYASNgBIyAETACB4TAEgoCxZko0pQLRXLOL+nDB4SHp9qGANkv4ZYcgpBN0W6qQ7hTnqMRMAJ7hcBcBQGXwL9X0iu/S9KX7tVqPzmZLwxVI5kbJMo/C4mY4FHMkYuEfi8W+Bh/GSwrH2jolPtwg1DHgnoWr6wQOymQRMZJYuv/VRJpqP+jof8lm5Dr4vWd3JIlx+/tixTMxPl+d++Fbm8EjIAROGYE5ioIXybpbyoAkuyI8Md9EIo93UnSzSR9TaFy5L9JOkPSj3dGXLC2b5b0QOkTTFBqSqSCAvI8ST8kiTFKQhIpymCjIERh83+opEeHGgK0ebAkGPGsJQok0FMl/eIOQWa9r9nheEsMBU4XdsnnJaB0H0bACBwLAnMVBEiEL6+A9WNhgztJLDGD31nS/SSxyWJufm3I1PheSVhAKDrE6ZKy05w0v6uxsA/KwL0l/VRY4Jsk/ZakfwwWlUuHTZ+IDBI/oQB8pAAGZEwqDT5J0t9KOi1RNO4VCg2RF4Iyy1g7fk3S+0PNCubNCRkeyB/uCGieGbglX7mj8eYOAz5PqbF053bu642AETACW0VgroJA3QRO5rnAPyCHwT+cIHCY4dlYYxZHUkFzAqdUcS5stJzikctIOrNh3lgNHhDaUUzq7oUTKu4MalB8lqTbSnpa1i9FrDj9g2PM/fBcSTcN7T4qidPvF4SCVfcMf8fN8ISgWHAP2QDpy2IEjIARMAJGYBEE5igIENU4yX5+YSZ/LumrFpnhtE6+OpzasRogxHiSsjmWEs57ZQOPvnxM6FgZhiQ1s8MxYAPPk0F9cbAIYJlAyAhJZshUsDbgMsDa8Ffhg1+SdPukEVaPRwRrBX8+tyTGTEmCL5V0w2lQ+SojYASMgBEwAudEYI6CwAn9LyqgPiuc1k8CcyInKDxxvjA4NSIg1g0VfEoVhJbqkb8eXBEMcUdJbOq5gMGtkj/CJ8DtEuWLJL1bEhaDmyd/z4te5VyOHwjuiHQ83BPwHCxGwAgYASNgBBZBYI6CgK+ejbIkmMsxm+9aOF1D8EuLRpEl6jEjE7laUqwC4iXJmmqCRYCwOSIKEFJMv6TQGHLidyZ/v3pg/8c/4dLAtUH1ylicCmsMSafS+4Llg4RTUQgpJbQ0yn8FBegk3Tm7vs8ezwgYASNgBFZGYKqCgHuBDfA7KvOrbZorL+cTHIO0ch4b/aVCKuja2LgLfkMSaZ3jaR6zfk2+InEH0AayI7yFPEoBCwH8AsiMkCQhI0bhbygZKDSQGOPmDrfgzUm7twXXSDofsIcYiqUDZeIHJb1sbWDdvxEwAkbACBwXAmMKwrdIulHwd7OpsYliuodfwMZbE8h1xPNj6ud32Pv8EPYHgfFBgXy3JNq4Fsi9EHkH9P3Tkn4iG4QNlpM6IZicxq8fIhgoS80pfyyxE3kOGCcVrsEK8AfBmkBfrLsmzIEql7R5ToiuoG0kLcbrID4+qtIJFgysB0PKzJL4ui8jYASMgBE4IgSGFARIcJyO2XiXFpSO31y402uFktNpt28J7oKY+e9CIXnT54ZcCGyubPY/L+mRHZstlgmiNGqCNeGZkh4SiJytS32hpG9PGhP++EetF7udETACRsAIGIGlEBhSEEj8E33jS41HP2QsxM+PdWFJOT0kDYp9svkzFv9itcB6wYkdjgLJnQg/xDTPT+8pnDwAY7wG5kFkA5s81pQxKUUnUAiLMEeLETACRsAIbBcBcvLgbr5sOMRi5YY8z+GWCLsPhkrHWKmpeFyLyMsRumIIoSeKjlw9XTKkIED0I9afjQv3QB7Glw5EP/xA4GNB/ItLgh+uj3/jdwh3D+uaZVvjN4SEQbE1J28257UEEibhiJGsWBsHpYQsfmMpkXP+AREiQ26ctdblfo3AoSPAi5Uw4/jeie+5+J7K/89640GCFy+/8xN/54CR/vAu5J0Ij4i/W4zAFARw2bNH3UQS0WkpuX6oP9L4k/WXw+2QSxy+HNw3lA34gi/qneQYB6G3v5Nsz0k7TUOcJh9aa17cYJIxkckQlwwKES+lXFpyKxCmSPKjKCRF+pm1Ju5+DxYBvrPpxpdvbAe7sAUnDjl4F4nDUBD4/mNNfMcI72jB5bmrA0eAfYOcOHDkSvtF6/JQVIlye3vhAsYgMy97Ioou/1I3qUu2pCAAQrqe24X6Cl2ATGyMxQRLAhogL4u8MNDdQibEoe5j2GNsQzGpnAw5cXq+bAMIcCrmpXKP8JzxzPG8py40TgjwXmLSrQ0se9ISSElOZNGuJLozSchG+vnuF/GuJupxThQBLOjPDqHxQ5ZnrFLvCenzcfPjjieXz3UkfX1wPcSF0JZsxk9OVobFGhd65A/CxcNC3S1bUhD4UqaEymtL+u1uROoXEPFw31C/gSRI9x/oOw+3bFEQyEoJiTIK0Rj4nSzHjQCKIuG3ZAfFTzkmbFa8XEi/TbRQq69yrN9D+pwqp7xIo9uTF3PLuw7siAxK3QZgnrokYmbUGh5cCwH7FrYoHNIjs+pceX6wFqDg10j/WMBxvUNUJ+ydBH8l4Xm8eEiWR/4e+uY7jsWZiDcSGMJTSMf52XCw6F5ky5emu9MTuuB1kgAsylUmkDL48pd8itRGoEhSfDlAeCSKgSiPkqDBkUY5ChEWvLRqcnlJ5DyIQhQEJqFe8uQJQe9hV0KAJF8UA8N6MEWwJGDN4oVxbBK/q7j9CM2mHDu1U25ZAeIuoVgbGVd5B/Dd4/2YKheYg1Hi6YtiZfiBCfkumYnhEBGRhOvBcrwIUD2Y3DwU28v3W/aR5wfrMgRC/t8qPHPfH3Lt8Kyj2JJvBwsjqf9TQVmtJTUcHG9LCgL5DiiRHIUoDJSGVsE9gIkQkDEDRQEjNuxUI+PlQSRGzQUAQQqmKUJb2Kk1ZYI2bASkYo5Syt/Qug632wYCnAZ4LqIbATMjobiYzwmz5e+QkC4ZWMr8Xvo+E8lzn3C6OHaFE74AL8tc8OWikNdObUNPFJlQCWnmO58L0VJYMhyJtI3vZM8q2MA51afVeeP1nPhJzndqY2HAoXHZN04ZsZBhVYDY2C1bUhDQ0DiFxzXVaiSUQMIaQAZDTv6ES/JCjcIJgpdsKkRMpNaKvM+0OmRLpcX0xcXDw8tmSKHovtG+4KAQIHoIFxbPMqcKCLfU8ai5C3gZkd6cZ7fGhG5JOX5QIE2YLGSuUhE5MpN+64T+4iUoAVSJLbkfWr7/M4b2pXuIABY/6vOUlFHcxricn7rgvLFWoQSUhIMFFq9JsiUFAQDQykjChBDmeOWR8EzMj2RSJG00v78gFE5K3QxghNmREwYva7IkEpaCn7ckhJTwIkLZwOyDuSdPw5xfR/XLGNLIWCkXYdKN9UUHiwBfdPJmoJjyvHHKaI1mgXeDD7OmJIy5ug4WtIaJ89Lme1jaxO8s6fENfQw1oT4KPKVcsE7gjogWxZnD+PI9R+ACkqiuy96TC5s138EzF14DCkct4y6KCoflSbI1BQE3AASP+ILEfwurm406CmsmJJGEFPiGeCGnZtgSkN8WlAfCmkg/zQs87ZNrUDBgmkJQgkRC/gPqJYxlQiSrI8mb4r3ACoLfynJ8CLB5UV+DlwyCYoCZskdo//CKyZENEmvZWE6OnvEOpe1QcTksAHN5Ghw02BhKgsuS1OqWbSPAvsNhL3c34dr7QDgEDlUVnooOewfvDQ6nudwsHIAn9b01BQEQYHnyIkQJQNDgfyWkYSYfAWaflPTFZs+GPMb2JtwEXkMUyEevDX5L/k48ajydoEjg8iAOdUxSdwRtcW9gKrYcHwKcNAlP4nuJAkoky1BNjxpCEJ6+ofLhsT5fZ0i6TQUTlPS5oYnkQsH1WBLeFZc+vsf5qFbMARGuSSlKgaRaWKCnfJdbQcRSQOK+XDgIl/IkNPW7RQWBhXOT8OPil8VUmwsbOHGjjwi+/hbyFljhWiBlJSmQS4xUWOMkPCJ7FQ9Fi5AKkxc6ysVfhxfJUNbKlj7d5jARICyXImIIzyQvFE4Gt8pKhY+tjlMDRcBKwksMF1bLMz82ziF9joWA71our04wn7MeyIr0VRLIjySusWwTAXIaYDkgJDnfF7j3WJTTqLY1UCDvD3yXVHBREsHTEx1xtg62qiDERQIO7G6+nKyVFy43Cl/QmMWgdhPpB34B3AIeDMDnIYCTMFYJstYnrgle2mh6U5jUazxw7nO3CGDVgsBUi0RAOf2txilhRcN6RcnxkkwOe2ocfx+bYVVMK73GOd58QJnqWceQUsa7Zix/Qs9Ybrs/CPB9RRknFD4X7juhri/ZwXRRfnM3GdE1JV5M83S2riA0A+GGRuCEEYAbQPhiTbAuwZdpVWwh3ZGYpSTHxqynjDvuwJLA8F6icBx8EcqzlwTFr6ScnPAj5+EXQACCK9WAS0LqfLIc7kLgH+T8htnJAq0g7OLWeQwjMI4Amz/hSjXBNYBFICfH1tpTi4CaBCUhaRds6mMRQspuW1gsbhaIZa3uwCG8YKbXeAbkroCTZNkWAiS449RecmOTA4N7PtWq3IsUoc5Ys9M9nUPHrOgZKwi9t8HtjcA6COC/HCK1cjog4VargnBjSS+uTJWEYKRuPhZ5d8AuXy8EZV7ycwUXIRaemuzyJDl3Lb6+DQFcRhDXiVTLBcUTN16NB9Q2Qn8rovGisgKPDbdl6/uiOJoVhP6b4CuMwBoI8MXG1B1DHPMxesuXU9jlFZWJklWtllhljbWddJ+EdebpqnmJ45+lrspcGTIzc4JE+VsjvG3uvH39dARIaUxm05KQdK8WRTR9xPErsSBErguplUuJmsZ7SVpYQeiCy42NwKoIkL6bzTsltLGRscl8YSeB9QYhJ0dpwkudnFcFY6HOIROTlbQUddRS/GpsGvSLRYZwsly4dw8OEVVj/fjzw0GA5wZlntDF0j2/nqRX7ng5501cZTx3WDZ+b+4crCDMRdDXG4FlESDJCtk6sSTwRed3+AK9lT0p5PK0ytSW4iCk74+l3iVp+OUSoZhUsiNNdS5wOghXnivgTI6F0vrJagm7vZVYOncuvn43CFBdtRS1wOgk6uM7vMSz27Ma3I+40hDC+Im0m81/WOpL3bMQtzUCRmAcAU4EpPyemhNjKIoB1jXVC3uEJEP3Cr585sa7I/2hr5rCEP8e/+XlWVME4mf8+7IQJtYzz7Qt4xE2HJOmpZ9BLiOD4hxBicPiUzpJEjVxw06rz5y5+NrdIMAzhcuqls4cy11rOPKSMybZX8zaCzGR8P5SZeKuMa0gdMHlxkbgYBAgIyMJWkpCMqZaUp+8/cUkcWKau5lOAQ4lAa4ECcimCKGFtTooc4tXwRnBVVPicmA5wLLQa/WZskZfs1sESGOOolwT8tmcFN+E7yrWqvfPOFicbV1WEHb7cHk0I7ALBGDmU9OjJG+RdKXGSRBHjXJwUjH8KAiYazHbThFSV5fK3ELmwgRLfvwpgoJFBda8qBos8geFWhizT29TJuZrVkUA7gHPTM16sIRVatUF9HZuBaEXMbc3AvuPAOWhawlaKFrEpj8mlD8+CVNpOi8y0BGuOVWoO3Fa4WIsEjXrSm0ssrKiMFF0ifopqaAYUJDpFLsUpt6qg7gOhZNcJeQcyAVllkJ+hD5uRqwgbOZWeiFG4BMIQLx7V8jBnkPyxkrcdt6O4mP5iw7TJeZ6zOakLGdT5KUIHyEmCKLgEQliSnLJhAuAab6UH57+OHnzGQzsErmw9TbzbiM3AZEhueCrHesbhYDEVFRyRTEo1VIAA+pn4E44KbNyKx5uNx8Biv7dstIN+QbgpMwmBs6f5nI9WEFYDkv3ZAT2AQHin7ES5ALZkcxuQ9kauSY3y7Nhv0bSd1ROx2kOgIdKum9hbMI2IQuiTCBstmvXHElZ3UveF5QYyrO/LmwWKAnHLlTDhKjJ88U9hsRHBUuUyZLihMuKUECe1UORNIywNGdcDyjnm4pYsYJwKI+n52kExhHAR8rGW0r9ivmTjX5MUCBS4h2naPII1CQtg36FhEmdtk8LyRCClSctGpvTlM9ZL+GcSwubHifFNTcCfNyUD96FzClzDY+DyrUkgqoJoXconWlGP1JPUzuA3B5jAg7fE8z67Fe1sSDmpaf3mJUUZYVnDsvWnKyCWMBQempCSHEpnffY+vb6cysIe317PDkj0IXAGyRdtXDFT0ridD+2qeGv/4kQrkgimEs1MPE5TbNh8i8nqFL89x1DeXWm9vyBGPKuxY40Zs0kKcqFjaPEa8DKgW+Zf3kv8jvFrgjvTH3OrA8XCIWZHrfkhENfbIB5sqwVhjmrS7gYQ2mia2O/PJTJjooM7ifyQbBRUxwLIidumpjoC07L6yVxHVk+f7ORX/KMwPuYulfF5zGWT+f+k8Tobp25Ckg8xPxr0qqAr3kvF+97KuiLT8QdGgEjMAuB0yXdO8tFEDP5wawfS9zCaY7QSE73nPqo1TDG8qeU7QvCmFgSrlFZwdOTsrOQJ6lNsLaQYIrY8Fx6U9AST87pkE0vFfCEBPnTCy+EFL3wL3b1bibTJJt6q8DpgMvCdcwRwusDQqn69BlDqSI0liqXVwucFa7jGeE6FLifahj0VEm3loR1DAW0lHOCbrCcEe2C8sbYKCfI+Qvpy5knVgUU4tb79yMDCiHFvrD6jH3HGpa7X0129RDu16o9GyOwLQSuG05kqVmal9X9guWgZbVYC9g8edHdLGRwHLsudS+QsZD89CXhRIyZGWHTroVgjo3X+nktvTLXQ058dGtHoR0+djZtMEoFjG8k6aWd/Y01j+9lNjr89WR9TAU3B5X62BTTE3LaJiaxYmNlU2eTRqHjJxU2UkinLYKZHYJpTFGNFQUshzZG5g+RE/dTKlgRXtUyaNYGBSPP4YGicf+BefC9YHwUjbsm/THvZwaS6dhUHjuQXIwy7ZpsFh0AABLUSURBVCUy7Fife/+5FYS9v0WeoBEYRAAyHv7VtK4ApyhMqLU69UtBGt0L9Fd74eNr/qdwasTFwTzHXB1z5zdUyRLLCLUTegX2Oiz2XLBUfF1vZx3t4YC8J2vPBokJf4pgvfmhcCH3BR5Bi5DzAeUgtu9RtHBjYJ2KAmEWS8AUomqpMBZWFwoktcjtJD0laYiSAB5PHrkY19hNKm3+UBI8m82JFYTN3VIv6IgQwHzKKT41pWM6hdRVK/W8FDxYGbA4xHTGnLJLyYGwbuB3RmD8x0iGpeZR6gfTMeb/XHo2xPxarBLwMkqCKZ0kOWsInBK4Jak8TBKm9ymSlqYmzwWpgVsELgAncASliA2xVdHDEgJ2MbEUZFl89lPkqQUyYI+bhOcPxSQtiIYFACWmFHob5whvgXDXkpAS/PpTFrPANTx7KOFwK/58gf7O1oUVhKURdX9GYDcI8ILDN07iniiwuCns9KaVp8B7A7N3LE2NiZ26AyXBDI0fGtlVBAO+7qsUJvMcSTefgU1aTjftZm7a5qEpYcKn/1TYjNiUpgobJK6kVkUjVfJQCohy6SU2PjBwFZgzobCQZqcIERCXSS6EL0OK4R5JXV7xujFMhxQErDK1xGQ985rSlpwnrL+3HHzTWFYQmmByIyOwdwg8QtI9s1ldZOCUu+QCMDP/Y9IhSsCjKgNguiWKAWFjKiUcWnJukCzx0ZfebRDNyDI5RfBjEyZX6pf8/BBE1xDCELEURWGD5hQ8tYgX/WCOJ932LRpzEZDRMiqAUysFpmGnnMThJfRK6q6K11IX4ZGdHcVNNb0MIi9KTE2eJ+k7Kx9isYLvs2uBP8J3CgvNkxLX0WLzsIKwGJTuyAjsDAFeZryQYvgd5tuvGihMtPTEIIQxhyiEgHFqLwnuBU6gCDHp6Wa39LzoDz8x/uKSYFWYal2BoFgz4bJBDRXwmbpOiG95ZkrwJGRwjqAg4CJoKYTF/cJaFAmwKCzwB1rdC3Ge8AQi9iiYuHt6BWsZpMIozIG+chLnUL/kCIGUme99hMQSjVGTkiUntiWCqOTS6l1fb3uwiBZEyKeLuxWtIPTeErc3AieLAKdxyIcxGRK+b05nnOx2IVgAsB7EMDJ4BWwitSQ0bKqR/b8LF8NjMqZ6xIT5Mc+pmQ/JTlnL/EfuiNZwuZ57lJr243Ut7gwiRuAupJtpOi7+asitmKZrvIrYHo4COQuiYJ3hJD/kry+tEWsFBa5QTlAWpkjOPyC8EDdXzz0tkT6Zy9gGewdJv1iZNFYprFO7FKJDSGDG9xCLCByKOVal4tytIOzylnosIzAPAUyznBLi5gzJjBNz6wsSxYJEPNSLn+ozZQ74Y6MQB19K7Rw/J5cCBEaEk1uc+zwk6lcTjnjlwsdzCz+VXDpxGJjxJAlaWkqlhamTQZrnIaEYFYTAkrUG7gr3gQ2ezXIs18UPSnpiMhjPGspFz6mdywmBxdJC8qm0vx7MiBZII0amhBcSlvob2aDkT4C8OZRpEetTzUrWQ/bsWe9QWyxWcEjYw39gQHmZNZ4VhFnw+WIjsDME2PQIb4tRAL8WWOU9pwby4nP6m8MiJ5scLoUoREyUwv/4HGUAq0F8zxDlsGYK4c8IG1cpUgLLyy/NuFuQwL62cv0YwW3qsDmZDpM65v2h9MiEcb41kAhj7ol0fJQGsh5yX1AixnIg5AmCCAvEEvB9nVYEFFMUSYi1UwpbnScoM6mC2ZpsKa4f5YgIDGpGpELo5ONHbhJlx1GsS7IKQXBgPihoWIH4LuG2A9sxRW/SM2gFYRJsvsgI7BQBqiXyYuMlifCSxeRZCiusTYyXCP5svvO/LOlWE1YQN5/00suGLHql7hgz5sSPn7Np9TLgW6dKQSkyO5YEUt5bWjvK2pHBD7dKqcwvTddI/lTakLCOlFJpp9N9SOCngEONVEffkNtQFMakhinuCywCRBX0uhvGxix9np/8UZawgKRk2bF+qcz5oqwRfBVCdseyIHLvsViAXS5koiTUchfCPJ6VlBwn9JT/ryJWEFaB1Z0agcUQ4IX09oT9j5uAbHBjL7R8AkQ8YCZH2EQgGvYK4YpELEQhrBJfaG2D4MTN6SqVUySRlW4NQXGi9HIuLSfvofkM8Q+4ricOv3XdJbLlGHY8KxTb4pTNxp5vhq1jp+3w8bMJp4m40s/hJECc5NkgoRM/vQTGlnmleRhojxUi5lVouR7FFCU7LRRGMS+sP61FnAiRxXqS75t8F3nW184Qyjq/Oyj4/I7CAtG0x4rYgtVZbawgdMHlxkZgpwjwoicDHSZFXroQ4UrllFsmRdU9kqogQ26BWl+4Jtgo0gQzY+Qs3CKcelOZQ1IbW2et/sIclwpjkkaazIEl4b5g6u1V2MbWUuI84H9njalwomTzxvXAPUZJWJrrgcWJjWlMYmEmfPxk8uR5WQoXsjhirYqC5SJ3FZTmBz7fHNJh43piPvAomF8vFwILHtlDcWXlghKfzm8MqymfXz4o3HwHcS1gQZmSjbJ5bCsIzVC5oRHYOQKRcMdLDXIXsc5TBbZ6NINy2sFP3SMoJ3msP6FyEMdqUqqAx1qIhFgj6gJWe4l/gDuFTW6qwOKvZRzE91srIDR1PK7LCXn8jdBATrtx02XzY9Niw+Lf6AIhlTTuoKUEFwv+954smLi/sGDcdKFJYKlIc2igQP34QN8o1SjTnPq5PxEbeChYYtLS0D1TzEN847Wsl5BLFIg1BAWdw0IsNY7yvVb2zrPmbwVhjVvpPo3AfATITki8O99RGOAkHMKUzw8vo9yMSztOFvwQAsnLHPM/BXYwo0I24yXJ5sKGMkZOS1dA3zC9qfiYylg8exr7nl63Bg8hNb3m6LNZMP+pgumY01tJ2DgpnFQT6kIQnofyMtQuvb5kremZO6RRrERLCvcMpaUnjwXPGpvY1LDGOH8KNOEOSPcr8MQSEL8HPNv8YM2JP1EpQKkizwE1GAgNnCPMgbDCEheBvxPS2/PdapkLUUBYUHiOwRQX49p1Vj4xLysILbfHbYzAbhGAdMQLPmX/16r2lWYWK/nxgsy/47zEIA/2CCFVhNylQigd/s8hEzIm4FJhpJ5CP63zzKMr0utIKzz1xEg/rJWyzyWBcFmKFohto/WBDa1kmi71WeI8kKgnuhfYALm3KIKc7lEkCcOL95rkOc9uBa6jHRsVHA9O5q1Fnng+sCTUCh21DJ8XSgLLM5MLub9ggRUFjkGuxGB5I1Khh9Q7NC+ea+pjlLKCwlGAOLgUcROFAxcZ1j+w5LBQy1ragmVXGysIXXC5sRFYHQFevpx2aoz5uRMgxW2t6Eyt7zTZUWxDmFstEU9swwubkLwYfRH/jruDLIGt+Rta1hxDOPO2U2Ll8z7IO0C55JKgPJCkpiRYb/CVs6FjhUiLag2tqZTsiRNrXtUx7YNNGJY+hDU275YIhRZcS21YD3wI0i9j6iZR11B+C07UzAm/ea9gEcNsn276r5B0vUJH7GfMDcUVFwRuobjHoajh7ljqmbt9cPmlnJw4JUKQsdhNCeeMffD9v42kxwXFEuUGxXotgm/xvlhB6H1c3d4IrIcALzQSIZVeOkuNSrw3p6lWIVSOZEjpu4KXLBtCCwENrkPJH96S8CefI26TyKbnxMiJlpMVL36iK0rvM8annC9mZjYqTMy8bPlptSrk0RvpvIZcDDF/P6dJymFzEmyRUrInTsZDvI27hM2D9dbyNbSMPaUNzwJuBE7OZH8sWaimZpvE6gLPI2YOZX5jaZFpw3cI4iBKWhTM8uC0lEB0JNSz9H0lpBjeUKxk2jMmiiTFrGL9C7gnYDulr55xz9HWCsIs+HyxEVgMAUK2OFmvZTmIE21J1ZsuqmQ96HFTpMWa0n55AfZEZGDOZXPHGsF7q+Q+abkZ0czM6S7nVNSuZ5Nh4y2R9FA8uHeQ6FLhtIdiwVx7Mu2VrC5sNjUXRxyT2hgQ6MCb7IclYSOnHgIbLn79NYTN8lWF/nEBXX3CgFgqyF+R7lVDtT/SIcgZwbjxWhj/LcmheqYJ94UUzLg5ckGBxnKEWwBlhe93TalG0cXyQU0HOEPMmbY8dyhdc6wRPes5W1srCJOh84VGYFEEhooBLTnQWM75fCySwKTx5ry04CTEEs5jc+Nlh3k3f9dgPn362MXJ50On+I5uzmram9yGPBLwMErvTAh0REpgkWCDR/GBSIYSwzhwFFrD0Ur8g5ZMf2TZZNNnw8IPXhIwJyU0GzgWjbUEKw+bYRrdQcIs0hn3Sp7/AJcVTP4W6xVjocClORxIioRlZ0nBXfa7gbg4tKeyyaNww1tB2cUqxLUoQSir8XDA2lgnysJYhscl13GOvqwgrAqvOzcCzQjsSkHgNEy4VKtweuUlFgU/eInBPdRfHsPOpgmjv8cfzJxrvv7WtaTtSKp0284L8Tv3pGtmfRDaSJncKnlZYdwTWC7GCHZwHci4SeRKTRnhNEo0BjgOZbOEy8CpF55JLb3w2HpyYiE5Gko1Mob6gU8AhqlV7WXhhD02Pp+XKjdOKQ/dMhZtUL4p6JW6Q1qvje2IyiCR2VDp6d4+J7e3gjAZOl9oBBZFgJdgLGq0aMdZZ5iXW09fXMpmQtjcZSRBDqMwDBt8j1CKGlY9bgJ8tlgOWv3/cRw2CzZKXqAt84/vthjRkf6LGZwT2timW1ojp2L82JTbrmUX5DpO9Jzme1IBc13u0iE8k/C2MQEbMKopB8yFe0AkxBUGOgMnCI6QAuekkM6JllNKIpcqL/bUX8BvjwUilbk1OVruAxwQXD4lImXteqw6KAWEkvZ+N8bmNPlzKwiTofOFRuBoEIg5FuaGbkW/6haAw+eM8oTZ/CLBXIySR5VDYv8J75yigEBETMMh4QwQwjhXYibNMQ4KYZOQ4pA5+SOeEMih9INCh4KJ8tMjRI7klSuJwCESp0VeW+A99FzfMkatDc86Cn98RiitjXUHHghhmiioWGdwvZAee82ok8nrsIIwGTpfaASMgBFYFAFOnJjQU8HUT6rnOUJODXJrsPGPuXZwQcSaAvj6p25clNdOWfiteRPSdaZKBn/H3UASqZYsnFhTsJaltRfog/VPdZvMuQcHea0VhIO8bZ60ETACG0SAcNI0NTEWCPgeEP6mChsluRrYGFtCXCHGnRYGm1qEin3l3aFWAF2RLwM+Q48wbxSa1O0GGfRajZ1g4UFBSN1AWMDgB7S4qBqH2XYzKwjbvr9enREwAoeDAMz2NPRyLI3z2MpweVCD4hbB3QFbvpTZMu0n5UBAsIT82CuEWcZCSFggUE56kyQR8ofpPRVqgeQZPWtzgweAPz/d45gLVhFLIwJWEBqBcjMjYASMwMoIQE5LMxLOCUfkBA7pDYsA73kyLVICekiwGKTWCsI1yVfRI5zciTiBl8FJHbIeP73CXF+QXXTNQP5s6Sstbx7bo4BBfMzlDpLuFDIvRv5Fyxibb2MFYfO32As0AkbgABAgsoCEQKmwsU4JdyNaBOUilvemT/JR5PyGHJacFEjECDkcINK1CBYLLBQQEpE5ZbYJJyWsNJWx4mBp24cVqj3WEny9I5AJIWjilrAEBKwg+FEwAkbACJwsAvjJ31yo1cAG31rSF8sDoYychHENpJYIEvRwcqZOw5DUTt3UWsjN/Xk/KCWsgTwb7Cvkz7jSxPLHKCUQJdNoDiwbRFXkVUxr6yHy443ZhyWXDcmjqLZJCC9FrywJAlYQ/DgYASNgBHaLAHkgqEWBGwDSHBthzrZnRqRvhrkfa0fkm2MscRyrGKJolN7pnMTZBMckhgVC5osphCEJ4vogTJI0zpj90zh9FAPyQhA+iYsCIb0xZMuWfBmE/sEVYO6xVDl95gW+6BcOAVgQJggWuBxqCZ/AFWtAqmRQiwNFKVoJqBlBGCm8BCw4U/gWY5ge9OdWEA769nnyRsAIHCACVJiEuLcLYSOF+DjmW2ejxtIAb4AEQ1QkvGwIj4xVKPmM1MVssCgvbOpwDWKNCjbgUwNBkd9bhCRa1CnoFfonmdOQVYTMjRQ4SitBkniKaBEUMpQYPqOoEiWhLRkCVhD8SBgBI2AEdosAJ1bCFzmdc9Kdk5o3zpyNO7cwsImSMyDmNRhaJXUcSEAE54FUv1GY2/dKIpcCHIX0RE4bTvRnhhTDvzChqBD9XzFU2hy7C1gVsJrgPmFcslWOCThj3UAZIGV4mrYZbgVVJskUaikgYAXBj4URMAJGwAiQgAhyIW6GmmApIDMgmy6bNFYElANO5fsuKAZYUqJihrWE2hRTsl3u+1oXm58VhMWgdEdGwAgYASNgBLaDgBWE7dxLr8QIGAEjYASMwGIIWEFYDEp3ZASMgBEwAkZgOwhYQdjOvfRKjIARMAJGwAgshoAVhMWgdEdGwAgYASNgBLaDgBWE7dxLr8QIGAEjYASMwGII/D9Oqhobh2QUVAAAAABJRU5ErkJggg==;" parent="1" vertex="1">
          <mxGeometry x="545" y="257" width="85" height="26.48" as="geometry" />
        </mxCell>
      </root>
    </mxGraphModel>
  </diagram>
</mxfile>
